<svg width="77" height="24" viewBox="0 0 77 24" fill="none" xmlns="http://www.w3.org/2000/svg">
<path d="M21.8379 0H21.8477V2.18164H21.8379V2.19141H20.7559V3.27246H20.7461V3.2832H19.6641V6.53516H20.7461V6.5459H20.7559V9.80859H21.8281V7.63672H21.8379V7.62598H22.9199V6.5459H22.9297V6.53516H29.4814V6.5459H29.4912V7.62598H31.6553V6.5459H31.665V6.53516H37.124V6.5459H37.1348V7.62598H38.2158V7.63672H38.2266V8.7168H39.3086V8.72754H39.3184V10.8994H40.4004V10.9092H40.4102V19.6367H40.4004V19.6465H37.124V19.6367H37.1143V10.9189H36.0322V10.9092H36.0225V9.82812H32.7666V10.9092H32.7568V10.9189H31.6748V19.6367H31.665V19.6465H28.3896V19.6367H28.3789V9.82812H25.123V10.9092H25.1133V10.9189H24.0312V19.6367H24.0215V19.6465H20.7461V19.6367H20.7363V9.82812H19.6641V19.6367H19.6543V19.6465H18.5723V21.8184H18.5625V21.8281H17.4805V22.9092H17.4707V22.9189H14.2051V24H14.1943V24.0098H13.1025V24H13.0928V20.7275H13.1025V20.7168H15.2764V18.5459H15.2861V18.5352H16.3682V9.82812H9.83691V10.9092H9.82715V10.9189H8.74512V15.2627H10.9189V15.2725H10.9287V16.3535H14.1943V16.3633H14.2051V19.6367H14.1943V19.6465H10.9189V19.6367H10.9092V18.5557H7.64355V18.5459H7.63281V17.4648H6.55176V17.4541H6.54102V16.374H5.45898V16.3633H5.44922V9.82812H3.28613V19.6367H3.27539V19.6465H0V19.6367H-0.00976562V5.4541H0V5.44434H1.08203V3.27246H1.0918V3.2627H2.17383V2.18164H2.18359V2.17188H4.35742V1.09082H4.36719V1.08105H6.55176V1.09082H6.56152V4.36328H6.55176V4.37402H4.37793V6.53516H6.55176V6.5459H6.56152V8.7168H7.63281V7.63672H7.64355V7.62598H8.72559V6.5459H8.73535V6.53516H16.3682V1.09082H16.3779V1.08105H17.46V0H17.4707V-0.00976562H21.8379V0Z" fill="black"/>
<path d="M69.7384 19.8V18.3331H68.2198V8.59998H70.4114V11.551H74.9846V13.0351H76.5205V18.3331H74.9846V19.8H69.7384ZM70.4114 17.453H74.3116V13.898H70.4114V17.453Z" fill="black"/>
<path d="M59.3402 19.8V18.3332H57.8216V11.551H60.0132V17.453H63.9134V11.551H66.1223V18.3332H64.5864V19.8H59.3402Z" fill="black"/>
<path d="M53.8611 19.8V8.59998H56.0528V19.8H53.8611Z" fill="black"/>
<path d="M45.3186 19.8V18.3332H43.8V13.0352H45.3186V11.551H50.5649V13.0352H52.1008V15.3649H49.8918V13.898H45.9917V17.453H49.8918V15.9689H52.1008V18.3332H50.5649V19.8H45.3186Z" fill="black"/>
</svg>
